<mxfile host="Electron" agent="Mozilla/5.0 (Windows NT 10.0; Win64; x64) AppleWebKit/537.36 (KHTML, like Gecko) draw.io/24.7.8 Chrome/128.0.6613.36 Electron/32.0.1 Safari/537.36" version="24.7.8">
  <diagram name="Страница — 1" id="H8fvTzvH4tDevLebkuV5">
    <mxGraphModel dx="1098" dy="1997" grid="1" gridSize="10" guides="1" tooltips="1" connect="1" arrows="1" fold="1" page="1" pageScale="1" pageWidth="827" pageHeight="1169" math="0" shadow="0">
      <root>
        <mxCell id="0" />
        <mxCell id="1" parent="0" />
        <mxCell id="OxuQWkTJEMrjo6qhzMSV-1" value="Пользователь" style="rounded=1;whiteSpace=wrap;html=1;" vertex="1" parent="1">
          <mxGeometry x="20" y="-1140" width="90" height="40" as="geometry" />
        </mxCell>
        <mxCell id="OxuQWkTJEMrjo6qhzMSV-2" value="" style="verticalLabelPosition=bottom;verticalAlign=top;html=1;shape=mxgraph.basic.rect;fillColor2=none;strokeWidth=1;size=20;indent=5;" vertex="1" parent="1">
          <mxGeometry x="60" y="-1100" width="10" height="370" as="geometry" />
        </mxCell>
        <mxCell id="OxuQWkTJEMrjo6qhzMSV-3" value="" style="endArrow=classic;html=1;rounded=0;" edge="1" parent="1">
          <mxGeometry width="50" height="50" relative="1" as="geometry">
            <mxPoint x="70" y="-1040" as="sourcePoint" />
            <mxPoint x="210" y="-1040" as="targetPoint" />
          </mxGeometry>
        </mxCell>
        <mxCell id="OxuQWkTJEMrjo6qhzMSV-4" value="Форма регисрации" style="rounded=1;whiteSpace=wrap;html=1;" vertex="1" parent="1">
          <mxGeometry x="170" y="-1140" width="90" height="40" as="geometry" />
        </mxCell>
        <mxCell id="OxuQWkTJEMrjo6qhzMSV-6" value="" style="edgeStyle=orthogonalEdgeStyle;rounded=0;orthogonalLoop=1;jettySize=auto;html=1;" edge="1" parent="1">
          <mxGeometry relative="1" as="geometry">
            <mxPoint x="215" y="-1070" as="sourcePoint" />
            <mxPoint x="215" y="-1100" as="targetPoint" />
          </mxGeometry>
        </mxCell>
        <mxCell id="OxuQWkTJEMrjo6qhzMSV-7" value="" style="verticalLabelPosition=bottom;verticalAlign=top;html=1;shape=mxgraph.basic.rect;fillColor2=none;strokeWidth=1;size=20;indent=5;" vertex="1" parent="1">
          <mxGeometry x="210" y="-1070" width="10" height="340" as="geometry" />
        </mxCell>
        <mxCell id="OxuQWkTJEMrjo6qhzMSV-8" value="передача даннхы" style="text;html=1;align=center;verticalAlign=middle;resizable=0;points=[];autosize=1;strokeColor=none;fillColor=none;" vertex="1" parent="1">
          <mxGeometry x="230" y="-1050" width="120" height="30" as="geometry" />
        </mxCell>
        <mxCell id="OxuQWkTJEMrjo6qhzMSV-9" value="" style="endArrow=classic;html=1;rounded=0;entryX=0;entryY=0.046;entryDx=0;entryDy=0;entryPerimeter=0;" edge="1" parent="1">
          <mxGeometry width="50" height="50" relative="1" as="geometry">
            <mxPoint x="220" y="-1009" as="sourcePoint" />
            <mxPoint x="364" y="-1007" as="targetPoint" />
          </mxGeometry>
        </mxCell>
        <mxCell id="OxuQWkTJEMrjo6qhzMSV-10" value="Обработка сохранение&amp;nbsp;" style="rounded=1;whiteSpace=wrap;html=1;" vertex="1" parent="1">
          <mxGeometry x="324" y="-1140" width="90" height="40" as="geometry" />
        </mxCell>
        <mxCell id="OxuQWkTJEMrjo6qhzMSV-11" value="" style="endArrow=none;dashed=1;html=1;rounded=0;" edge="1" parent="1">
          <mxGeometry width="50" height="50" relative="1" as="geometry">
            <mxPoint x="369" y="-1020" as="sourcePoint" />
            <mxPoint x="368.58000000000004" y="-1100" as="targetPoint" />
          </mxGeometry>
        </mxCell>
        <mxCell id="OxuQWkTJEMrjo6qhzMSV-12" value="" style="verticalLabelPosition=bottom;verticalAlign=top;html=1;shape=mxgraph.basic.rect;fillColor2=none;strokeWidth=1;size=20;indent=5;" vertex="1" parent="1">
          <mxGeometry x="364" y="-1020" width="10" height="280" as="geometry" />
        </mxCell>
        <mxCell id="OxuQWkTJEMrjo6qhzMSV-13" value="Валидация" style="text;html=1;align=center;verticalAlign=middle;resizable=0;points=[];autosize=1;strokeColor=none;fillColor=none;" vertex="1" parent="1">
          <mxGeometry x="374" y="-1010" width="90" height="30" as="geometry" />
        </mxCell>
        <mxCell id="OxuQWkTJEMrjo6qhzMSV-14" value="" style="endArrow=none;html=1;rounded=0;entryX=1.2;entryY=0.139;entryDx=0;entryDy=0;entryPerimeter=0;" edge="1" parent="1">
          <mxGeometry width="50" height="50" relative="1" as="geometry">
            <mxPoint x="410" y="-981" as="sourcePoint" />
            <mxPoint x="376" y="-981" as="targetPoint" />
          </mxGeometry>
        </mxCell>
        <mxCell id="OxuQWkTJEMrjo6qhzMSV-15" value="" style="endArrow=none;html=1;rounded=0;" edge="1" parent="1">
          <mxGeometry width="50" height="50" relative="1" as="geometry">
            <mxPoint x="410" y="-960" as="sourcePoint" />
            <mxPoint x="410" y="-980" as="targetPoint" />
          </mxGeometry>
        </mxCell>
        <mxCell id="OxuQWkTJEMrjo6qhzMSV-16" value="" style="endArrow=classic;html=1;rounded=0;" edge="1" parent="1">
          <mxGeometry width="50" height="50" relative="1" as="geometry">
            <mxPoint x="410" y="-960" as="sourcePoint" />
            <mxPoint x="380" y="-960" as="targetPoint" />
          </mxGeometry>
        </mxCell>
        <mxCell id="OxuQWkTJEMrjo6qhzMSV-18" value="" style="endArrow=classic;html=1;rounded=0;entryX=0;entryY=0.046;entryDx=0;entryDy=0;entryPerimeter=0;" edge="1" parent="1">
          <mxGeometry width="50" height="50" relative="1" as="geometry">
            <mxPoint x="374" y="-930" as="sourcePoint" />
            <mxPoint x="518" y="-928" as="targetPoint" />
          </mxGeometry>
        </mxCell>
        <mxCell id="OxuQWkTJEMrjo6qhzMSV-19" value="Заявка создана" style="text;html=1;align=center;verticalAlign=middle;resizable=0;points=[];autosize=1;strokeColor=none;fillColor=none;" vertex="1" parent="1">
          <mxGeometry x="385" y="-915" width="110" height="30" as="geometry" />
        </mxCell>
        <mxCell id="OxuQWkTJEMrjo6qhzMSV-20" value="" style="endArrow=classic;html=1;rounded=0;entryX=1.019;entryY=0.489;entryDx=0;entryDy=0;entryPerimeter=0;exitX=-0.161;exitY=0.87;exitDx=0;exitDy=0;exitPerimeter=0;" edge="1" parent="1">
          <mxGeometry width="50" height="50" relative="1" as="geometry">
            <mxPoint x="508" y="-882" as="sourcePoint" />
            <mxPoint x="374" y="-883" as="targetPoint" />
          </mxGeometry>
        </mxCell>
        <mxCell id="OxuQWkTJEMrjo6qhzMSV-21" value="" style="verticalLabelPosition=bottom;verticalAlign=top;html=1;shape=mxgraph.basic.rect;fillColor2=none;strokeWidth=1;size=20;indent=5;" vertex="1" parent="1">
          <mxGeometry x="510" y="-925" width="10" height="50" as="geometry" />
        </mxCell>
        <mxCell id="OxuQWkTJEMrjo6qhzMSV-22" value="" style="endArrow=none;dashed=1;html=1;rounded=0;" edge="1" parent="1">
          <mxGeometry width="50" height="50" relative="1" as="geometry">
            <mxPoint x="515" y="-930" as="sourcePoint" />
            <mxPoint x="514.58" y="-1100" as="targetPoint" />
          </mxGeometry>
        </mxCell>
        <mxCell id="OxuQWkTJEMrjo6qhzMSV-23" value="БД" style="rounded=1;whiteSpace=wrap;html=1;" vertex="1" parent="1">
          <mxGeometry x="470" y="-1140" width="90" height="40" as="geometry" />
        </mxCell>
        <mxCell id="OxuQWkTJEMrjo6qhzMSV-24" value="" style="endArrow=none;dashed=1;html=1;rounded=0;entryX=0.336;entryY=1.042;entryDx=0;entryDy=0;entryPerimeter=0;" edge="1" parent="1">
          <mxGeometry width="50" height="50" relative="1" as="geometry">
            <mxPoint x="515" y="-740" as="sourcePoint" />
            <mxPoint x="513" y="-873" as="targetPoint" />
          </mxGeometry>
        </mxCell>
        <mxCell id="OxuQWkTJEMrjo6qhzMSV-25" value="Сообщение пользователю" style="text;html=1;align=center;verticalAlign=middle;resizable=0;points=[];autosize=1;strokeColor=none;fillColor=none;" vertex="1" parent="1">
          <mxGeometry x="410" y="-800" width="170" height="30" as="geometry" />
        </mxCell>
        <mxCell id="OxuQWkTJEMrjo6qhzMSV-26" value="" style="endArrow=classic;html=1;rounded=0;entryX=-0.155;entryY=0.065;entryDx=0;entryDy=0;entryPerimeter=0;exitX=1.045;exitY=0.897;exitDx=0;exitDy=0;exitPerimeter=0;" edge="1" parent="1">
          <mxGeometry width="50" height="50" relative="1" as="geometry">
            <mxPoint x="374" y="-769" as="sourcePoint" />
            <mxPoint x="678" y="-767" as="targetPoint" />
          </mxGeometry>
        </mxCell>
        <mxCell id="OxuQWkTJEMrjo6qhzMSV-28" value="Доставка цветов" style="rounded=1;whiteSpace=wrap;html=1;" vertex="1" parent="1">
          <mxGeometry x="630" y="-1140" width="90" height="40" as="geometry" />
        </mxCell>
        <mxCell id="OxuQWkTJEMrjo6qhzMSV-29" value="" style="endArrow=none;dashed=1;html=1;rounded=0;" edge="1" parent="1">
          <mxGeometry width="50" height="50" relative="1" as="geometry">
            <mxPoint x="680" y="-770" as="sourcePoint" />
            <mxPoint x="680" y="-1100" as="targetPoint" />
          </mxGeometry>
        </mxCell>
        <mxCell id="OxuQWkTJEMrjo6qhzMSV-30" value="" style="verticalLabelPosition=bottom;verticalAlign=top;html=1;shape=mxgraph.basic.rect;fillColor2=none;strokeWidth=1;size=20;indent=5;" vertex="1" parent="1">
          <mxGeometry x="680" y="-770" width="10" height="50" as="geometry" />
        </mxCell>
        <mxCell id="OxuQWkTJEMrjo6qhzMSV-31" value="Создание заявки о доставке цветов&amp;nbsp;" style="text;html=1;align=center;verticalAlign=middle;resizable=0;points=[];autosize=1;strokeColor=none;fillColor=none;" vertex="1" parent="1">
          <mxGeometry x="365" y="-955" width="230" height="30" as="geometry" />
        </mxCell>
      </root>
    </mxGraphModel>
  </diagram>
</mxfile>
